<?xml version="1.0" encoding="UTF-8"?>
<!DOCTYPE svg PUBLIC "-//W3C//DTD SVG 1.1//EN" "http://www.w3.org/Graphics/SVG/1.1/DTD/svg11.dtd">
<svg xmlns="http://www.w3.org/2000/svg" version="1.1" width="350px" height="175px" style="shape-rendering:geometricPrecision; text-rendering:geometricPrecision; image-rendering:optimizeQuality; fill-rule:evenodd; clip-rule:evenodd" xmlns:xlink="http://www.w3.org/1999/xlink">
<g><path style="opacity:0.608" fill="#dbdbdb" d="M 186.5,2.5 C 179.11,2.23628 171.777,2.56961 164.5,3.5C 164.611,2.88258 164.944,2.38258 165.5,2C 172.679,1.17874 179.679,1.3454 186.5,2.5 Z"/></g>
<g><path style="opacity:0.608" fill="#dbdbdb" d="M 267.5,2.5 C 260.11,2.23628 252.777,2.56961 245.5,3.5C 245.611,2.88258 245.944,2.38258 246.5,2C 253.679,1.17874 260.679,1.3454 267.5,2.5 Z"/></g>
<g><path style="opacity:0.094" fill="#d4d4d4" d="M 163.5,5.5 C 163.5,8.83333 163.5,12.1667 163.5,15.5C 158.833,15.5 154.167,15.5 149.5,15.5C 153.567,13.9462 157.9,13.2796 162.5,13.5C 162.194,10.6146 162.527,7.9479 163.5,5.5 Z"/></g>
<g><path style="opacity:1" fill="#8d8d8d" d="M 267.5,2.5 C 268.79,3.05773 269.623,4.05773 270,5.5C 270.667,27.1667 270.667,48.8333 270,70.5C 269.583,71.756 268.75,72.4226 267.5,72.5C 268.824,49.1964 268.824,25.8631 267.5,2.5 Z"/></g>
<g><path style="opacity:0.929" fill="#aeaeae" d="M 149.5,15.5 C 148.457,17.8519 147.124,18.0185 145.5,16C 125.167,15.3333 104.833,15.3333 84.5,16C 83.344,17.6149 82.0107,17.6149 80.5,16C 69.8385,15.5002 59.1719,15.3335 48.5,15.5C 53.569,13.9429 58.9024,13.2762 64.5,13.5C 70.6169,13.3365 76.6169,14.0032 82.5,15.5C 86.5082,13.9971 90.6749,13.3305 95,13.5C 108.487,13.5181 121.987,13.5181 135.5,13.5C 140.297,13.4229 144.964,14.0896 149.5,15.5 Z"/></g>
<g><path style="opacity:1" fill="#131313" d="M 186.5,2.5 C 187.383,7.10306 187.717,11.7697 187.5,16.5C 188.791,16.7373 189.791,16.404 190.5,15.5C 201.167,15.5 211.833,15.5 222.5,15.5C 224.044,15.7031 225.378,16.3698 226.5,17.5C 227.622,16.3698 228.956,15.7031 230.5,15.5C 235.167,15.5 239.833,15.5 244.5,15.5C 244.5,12.1667 244.5,8.83333 244.5,5.5C 244.328,4.50838 244.662,3.84171 245.5,3.5C 252.777,2.56961 260.11,2.23628 267.5,2.5C 268.824,25.8631 268.824,49.1964 267.5,72.5C 253.957,72.4143 240.624,72.4143 227.5,72.5C 226.791,73.404 225.791,73.7373 224.5,73.5C 214.5,73.5 204.5,73.5 194.5,73.5C 192.585,73.7845 190.919,73.4511 189.5,72.5C 176.389,72.4339 163.056,72.4339 149.5,72.5C 147.956,72.2969 146.622,71.6302 145.5,70.5C 144.378,71.6302 143.044,72.2969 141.5,72.5C 129.299,72.3795 117.299,72.3795 105.5,72.5C 86.5435,71.9764 67.5435,71.9764 48.5,72.5C 47.5084,72.6716 46.8417,72.3382 46.5,71.5C 45.8333,70.1667 44.8333,69.1667 43.5,68.5C 42.5463,52.8686 42.213,37.202 42.5,21.5C 43.5,18.5 45.5,16.5 48.5,15.5C 59.1719,15.3335 69.8385,15.5002 80.5,16C 82.0107,17.6149 83.344,17.6149 84.5,16C 104.833,15.3333 125.167,15.3333 145.5,16C 147.124,18.0185 148.457,17.8519 149.5,15.5C 154.167,15.5 158.833,15.5 163.5,15.5C 163.5,12.1667 163.5,8.83333 163.5,5.5C 163.328,4.50838 163.662,3.84171 164.5,3.5C 171.777,2.56961 179.11,2.23628 186.5,2.5 Z"/></g>
<g><path style="opacity:0.93" fill="#a3a3a3" d="M 222.5,15.5 C 211.833,15.5 201.167,15.5 190.5,15.5C 195.569,13.9429 200.902,13.2762 206.5,13.5C 212.098,13.2762 217.431,13.9429 222.5,15.5 Z"/></g>
<g><path style="opacity:1" fill="#a2a2a2" d="M 264.5,6.5 C 265.497,27.3267 265.831,48.3267 265.5,69.5C 254.321,69.8279 243.321,69.4946 232.5,68.5C 243.167,68.5 253.833,68.5 264.5,68.5C 264.5,47.8333 264.5,27.1667 264.5,6.5 Z"/></g>
<g><path style="opacity:1" fill="#b6b6b6" d="M 183.5,6.5 C 184.497,27.3267 184.831,48.3267 184.5,69.5C 173.321,69.8279 162.321,69.4946 151.5,68.5C 162.167,68.5 172.833,68.5 183.5,68.5C 183.5,47.8333 183.5,27.1667 183.5,6.5 Z"/></g>
<g><path style="opacity:1" fill="#fcfcfc" d="M 249.5,6.5 C 254.5,6.5 259.5,6.5 264.5,6.5C 264.5,27.1667 264.5,47.8333 264.5,68.5C 253.833,68.5 243.167,68.5 232.5,68.5C 230.589,68.4257 229.422,67.4257 229,65.5C 228.333,51.1667 228.333,36.8333 229,22.5C 230.129,20.8588 231.629,19.8588 233.5,19.5C 238.833,19.5 244.167,19.5 249.5,19.5C 249.5,15.1667 249.5,10.8333 249.5,6.5 Z"/></g>
<g><path style="opacity:1" fill="#fdfdfd" d="M 168.5,6.5 C 173.5,6.5 178.5,6.5 183.5,6.5C 183.5,27.1667 183.5,47.8333 183.5,68.5C 172.833,68.5 162.167,68.5 151.5,68.5C 149.589,68.4257 148.422,67.4257 148,65.5C 147.333,51.1667 147.333,36.8333 148,22.5C 149.129,20.8588 150.629,19.8588 152.5,19.5C 157.833,19.5 163.167,19.5 168.5,19.5C 168.5,15.1667 168.5,10.8333 168.5,6.5 Z"/></g>
<g><path style="opacity:1" fill="#8d8d8d" d="M 186.5,2.5 C 187.79,3.05773 188.623,4.05773 189,5.5C 189.784,8.76027 189.617,11.9269 188.5,15C 189.094,15.4643 189.761,15.631 190.5,15.5C 189.791,16.404 188.791,16.7373 187.5,16.5C 187.717,11.7697 187.383,7.10306 186.5,2.5 Z"/></g>
<g><path style="opacity:0.094" fill="#d4d4d4" d="M 244.5,5.5 C 244.5,8.83333 244.5,12.1667 244.5,15.5C 239.833,15.5 235.167,15.5 230.5,15.5C 234.567,13.9462 238.9,13.2796 243.5,13.5C 243.194,10.6146 243.527,7.9479 244.5,5.5 Z"/></g>
<g><path style="opacity:1" fill="#717171" d="M 168.5,6.5 C 168.5,10.8333 168.5,15.1667 168.5,19.5C 163.167,19.5 157.833,19.5 152.5,19.5C 157.305,18.5128 162.305,18.1795 167.5,18.5C 167.183,14.2984 167.517,10.2984 168.5,6.5 Z"/></g>
<g><path style="opacity:1" fill="#757575" d="M 249.5,6.5 C 249.5,10.8333 249.5,15.1667 249.5,19.5C 244.167,19.5 238.833,19.5 233.5,19.5C 238.305,18.5128 243.305,18.1795 248.5,18.5C 248.183,14.2984 248.517,10.2984 249.5,6.5 Z"/></g>
<g><path style="opacity:1" fill="#fcfcfc" d="M 82.5,22.5 C 82.5,28.1667 82.5,33.8333 82.5,39.5C 77.5,39.5 72.5,39.5 67.5,39.5C 67.8064,36.6146 67.4731,33.9479 66.5,31.5C 65.1667,31.5 63.8333,31.5 62.5,31.5C 62.5,39.8333 62.5,48.1667 62.5,56.5C 63.8333,56.5 65.1667,56.5 66.5,56.5C 67.4816,53.0381 67.815,49.3714 67.5,45.5C 72.5,45.5 77.5,45.5 82.5,45.5C 82.5,52.1667 82.5,58.8333 82.5,65.5C 81.657,67.1733 80.3237,68.34 78.5,69C 68.4002,69.9487 58.4002,69.6154 48.5,68C 47.8742,67.2496 47.3742,66.4162 47,65.5C 46.3333,51.1667 46.3333,36.8333 47,22.5C 47.8333,21.6667 48.6667,20.8333 49.5,20C 59.5,19.3333 69.5,19.3333 79.5,20C 80.9423,20.3768 81.9423,21.2101 82.5,22.5 Z"/></g>
<g><path style="opacity:1" fill="#fefffe" d="M 87.5,19.5 C 92.5,19.5 97.5,19.5 102.5,19.5C 102.5,35.8333 102.5,52.1667 102.5,68.5C 97.5,68.5 92.5,68.5 87.5,68.5C 87.5,52.1667 87.5,35.8333 87.5,19.5 Z"/></g>
<g><path style="opacity:1" fill="#fcfcfc" d="M 107.5,19.5 C 112.833,19.5 118.167,19.5 123.5,19.5C 123.5,31.8333 123.5,44.1667 123.5,56.5C 124.833,56.5 126.167,56.5 127.5,56.5C 127.5,44.1667 127.5,31.8333 127.5,19.5C 132.833,19.5 138.167,19.5 143.5,19.5C 143.667,35.1702 143.5,50.8369 143,66.5C 142.097,67.7014 140.931,68.5348 139.5,69C 130.167,69.6667 120.833,69.6667 111.5,69C 110.069,68.5348 108.903,67.7014 108,66.5C 107.5,50.8369 107.333,35.1702 107.5,19.5 Z"/></g>
<g><path style="opacity:1" fill="#fbfbfb" d="M 191.5,19.5 C 201.506,19.3335 211.506,19.5002 221.5,20C 222.308,20.3076 222.975,20.8076 223.5,21.5C 224.485,37.4522 224.818,53.4522 224.5,69.5C 213.828,69.6665 203.161,69.4998 192.5,69C 191.069,68.5348 189.903,67.7014 189,66.5C 188.333,57.8333 188.333,49.1667 189,40.5C 189.903,39.2986 191.069,38.4652 192.5,38C 197.823,37.5006 203.156,37.334 208.5,37.5C 208.5,35.5 208.5,33.5 208.5,31.5C 207.167,31.5 205.833,31.5 204.5,31.5C 204.5,32.5 204.5,33.5 204.5,34.5C 199.167,34.5 193.833,34.5 188.5,34.5C 188.334,30.1539 188.501,25.8206 189,21.5C 189.995,20.9341 190.828,20.2674 191.5,19.5 Z"/></g>
<g><path style="opacity:1" fill="#adadad" d="M 86.5,19.5 C 86.8333,19.5 87.1667,19.5 87.5,19.5C 87.5,35.8333 87.5,52.1667 87.5,68.5C 92.5,68.5 97.5,68.5 102.5,68.5C 102.5,68.8333 102.5,69.1667 102.5,69.5C 97.1667,69.5 91.8333,69.5 86.5,69.5C 86.5,52.8333 86.5,36.1667 86.5,19.5 Z"/></g>
<g><path style="opacity:1" fill="#888888" d="M 86.5,19.5 C 91.9753,18.5111 97.642,18.1778 103.5,18.5C 103.83,35.6749 103.497,52.6749 102.5,69.5C 102.5,69.1667 102.5,68.8333 102.5,68.5C 102.5,52.1667 102.5,35.8333 102.5,19.5C 97.5,19.5 92.5,19.5 87.5,19.5C 87.1667,19.5 86.8333,19.5 86.5,19.5 Z"/></g>
<g><path style="opacity:0.518" fill="#c1c1c1" d="M 42.5,21.5 C 42.213,37.202 42.5463,52.8686 43.5,68.5C 42.7784,68.0825 42.2784,67.4158 42,66.5C 41.1723,51.3277 41.3389,36.3277 42.5,21.5 Z"/></g>
<g><path style="opacity:1" fill="#191919" d="M 167.5,31.5 C 167.5,39.8333 167.5,48.1667 167.5,56.5C 166.5,56.5 165.5,56.5 164.5,56.5C 163.507,48.3501 163.174,40.0168 163.5,31.5C 164.833,31.5 166.167,31.5 167.5,31.5 Z"/></g>
<g><path style="opacity:1" fill="#191919" d="M 244.5,31.5 C 245.833,31.5 247.167,31.5 248.5,31.5C 248.5,39.8333 248.5,48.1667 248.5,56.5C 247.167,56.5 245.833,56.5 244.5,56.5C 244.5,48.1667 244.5,39.8333 244.5,31.5 Z"/></g>
<g><path style="opacity:1" fill="#939393" d="M 167.5,31.5 C 168.493,39.9839 168.826,48.6506 168.5,57.5C 166.901,57.7678 165.568,57.4345 164.5,56.5C 165.5,56.5 166.5,56.5 167.5,56.5C 167.5,48.1667 167.5,39.8333 167.5,31.5 Z"/></g>
<g><path style="opacity:1" fill="#9d9d9d" d="M 82.5,22.5 C 83.4896,28.31 83.8229,34.31 83.5,40.5C 77.8333,40.5 72.1667,40.5 66.5,40.5C 66.5,37.5 66.5,34.5 66.5,31.5C 67.4731,33.9479 67.8064,36.6146 67.5,39.5C 72.5,39.5 77.5,39.5 82.5,39.5C 82.5,33.8333 82.5,28.1667 82.5,22.5 Z"/></g>
<g><path style="opacity:1" fill="#999999" d="M 82.5,65.5 C 82.5,58.8333 82.5,52.1667 82.5,45.5C 77.5,45.5 72.5,45.5 67.5,45.5C 67.815,49.3714 67.4816,53.0381 66.5,56.5C 66.5,52.5 66.5,48.5 66.5,44.5C 72.1667,44.5 77.8333,44.5 83.5,44.5C 83.8245,51.6866 83.4912,58.6866 82.5,65.5 Z"/></g>
<g><path style="opacity:1" fill="#161616" d="M 204.5,48.5 C 205.833,48.5 207.167,48.5 208.5,48.5C 208.5,51.1667 208.5,53.8333 208.5,56.5C 207.167,56.5 205.833,56.5 204.5,56.5C 204.5,53.8333 204.5,51.1667 204.5,48.5 Z"/></g>
<g><path style="opacity:0.012" fill="#d2d2d2" d="M 43.5,68.5 C 44.8333,69.1667 45.8333,70.1667 46.5,71.5C 44.5,71.5 43.5,70.5 43.5,68.5 Z"/></g>
<g><path style="opacity:1" fill="#a7a7a7" d="M 105.5,72.5 C 105.082,73.2216 104.416,73.7216 103.5,74C 96.3549,75.0017 89.3549,74.5017 82.5,72.5C 76.7954,74.0304 70.962,74.697 65,74.5C 60.8333,74.3333 56.6667,74.1667 52.5,74C 50.9419,73.79 49.6085,73.29 48.5,72.5C 67.5435,71.9764 86.5435,71.9764 105.5,72.5 Z"/></g>
<g><path style="opacity:1" fill="#9e9e9e" d="M 105.5,72.5 C 117.299,72.3795 129.299,72.3795 141.5,72.5C 140.391,73.29 139.058,73.79 137.5,74C 126.732,74.9762 116.066,74.4762 105.5,72.5 Z"/></g>
<g><path style="opacity:1" fill="#a1a1a1" d="M 189.5,72.5 C 177.625,74.5557 165.625,75.0557 153.5,74C 151.942,73.79 150.609,73.29 149.5,72.5C 163.056,72.4339 176.389,72.4339 189.5,72.5 Z"/></g>
<g><path style="opacity:1" fill="#818181" d="M 227.5,72.5 C 240.624,72.4143 253.957,72.4143 267.5,72.5C 267.158,73.3382 266.492,73.6716 265.5,73.5C 255.5,73.5 245.5,73.5 235.5,73.5C 232.794,73.4249 230.127,73.0916 227.5,72.5 Z"/></g>
<g><path style="opacity:0.546" fill="#e2e2e2" d="M 163.5,76.5 C 149.451,76.2013 135.451,76.5346 121.5,77.5C 121.611,76.8826 121.944,76.3826 122.5,76C 136.34,75.1728 150.006,75.3395 163.5,76.5 Z"/></g>
<g><path style="opacity:0.516" fill="#d7d7d7" d="M 181.5,77.5 C 175.338,76.6236 169.338,76.2903 163.5,76.5C 166.647,76.0774 169.814,75.7441 173,75.5C 176.15,75.3603 178.983,76.027 181.5,77.5 Z"/></g>
<g><path style="opacity:1" fill="#383937" d="M 328.5,76.5 C 289.833,76.5 251.167,76.5 212.5,76.5C 212.5,81.8333 212.5,87.1667 212.5,92.5C 215.713,92.19 218.713,92.5233 221.5,93.5C 218.167,93.5 214.833,93.5 211.5,93.5C 211.5,89.1667 211.5,84.8333 211.5,80.5C 211.5,78.8333 211.5,77.1667 211.5,75.5C 250.67,75.1681 289.67,75.5015 328.5,76.5 Z"/></g>
<g><path style="opacity:1" fill="#111010" d="M 328.5,76.5 C 328.5,81.8333 328.5,87.1667 328.5,92.5C 324.363,92.1463 320.363,92.6463 316.5,94C 313.556,96.722 311.223,99.8887 309.5,103.5C 315.163,106.997 319.663,111.664 323,117.5C 323.965,121.782 323.298,125.782 321,129.5C 320.912,135.61 320.245,141.61 319,147.5C 313.871,150.196 309.371,149.196 305.5,144.5C 304.498,142.49 303.498,140.49 302.5,138.5C 300.032,139.803 297.699,141.303 295.5,143C 293.866,143.494 292.199,143.66 290.5,143.5C 286.773,152.505 282.94,161.505 279,170.5C 274.218,171.802 269.385,171.802 264.5,170.5C 260.255,161.676 255.755,153.01 251,144.5C 247.127,142.979 243.46,140.979 240,138.5C 237.972,145.256 233.472,148.756 226.5,149C 224.677,148.003 223.01,146.836 221.5,145.5C 221.5,141.833 221.5,138.167 221.5,134.5C 222.794,132.32 222.461,130.32 220.5,128.5C 217.393,122.691 218.059,117.358 222.5,112.5C 225.335,109.835 228.335,107.335 231.5,105C 229.749,100.095 226.749,96.2612 222.5,93.5C 222.167,93.5 221.833,93.5 221.5,93.5C 218.713,92.5233 215.713,92.19 212.5,92.5C 212.5,87.1667 212.5,81.8333 212.5,76.5C 251.167,76.5 289.833,76.5 328.5,76.5 Z"/></g>
<g><path style="opacity:1" fill="#edeeee" d="M 265.5,98.5 C 263.11,98.3152 262.11,96.9818 262.5,94.5C 262.782,91.2691 264.115,88.6024 266.5,86.5C 268.5,86.5 270.5,86.5 272.5,86.5C 272.5,85.1667 272.5,83.8333 272.5,82.5C 254.5,82.5 236.5,82.5 218.5,82.5C 218.5,83.8333 218.5,85.1667 218.5,86.5C 220.5,86.5 222.5,86.5 224.5,86.5C 230.094,91.2795 234.427,97.1128 237.5,104C 236.944,104.383 236.611,104.883 236.5,105.5C 232.661,100.381 228.661,95.214 224.5,90C 221.937,88.9207 219.271,88.4207 216.5,88.5C 216.5,85.8333 216.5,83.1667 216.5,80.5C 235.833,80.5 255.167,80.5 274.5,80.5C 274.5,83.1667 274.5,85.8333 274.5,88.5C 267.339,87.9968 264.339,91.3301 265.5,98.5 Z"/></g>
<g><path style="opacity:1" fill="#d7d8d8" d="M 302.5,101.5 C 304.25,100.341 305.25,98.674 305.5,96.5C 308.5,92.8333 311.833,89.5 315.5,86.5C 318.969,87.1128 320.969,85.7794 321.5,82.5C 309.5,82.5 297.5,82.5 285.5,82.5C 285.5,83.8333 285.5,85.1667 285.5,86.5C 288.692,86.4045 291.692,87.0712 294.5,88.5C 297.16,92.4786 297.16,96.4786 294.5,100.5C 295.48,91.48 291.48,87.48 282.5,88.5C 282.5,85.5 282.5,82.5 282.5,79.5C 296.5,79.5 310.5,79.5 324.5,79.5C 324.5,82.5 324.5,85.5 324.5,88.5C 320.59,88.2628 316.923,89.0961 313.5,91C 310.203,95.1078 307.036,99.2745 304,103.5C 302.97,103.164 302.47,102.497 302.5,101.5 Z"/></g>
<g><path style="opacity:0.765" fill="#a5a5a5" d="M 19.5,76.5 C 19.2172,77.2891 18.7172,77.9558 18,78.5C 17.5,101.831 17.3334,125.164 17.5,148.5C 16.3369,125.004 16.1702,101.337 17,77.5C 17.6708,76.7476 18.5041,76.4142 19.5,76.5 Z"/></g>
<g><path style="opacity:1" fill="#fcfcfc" d="M 182.5,133.5 C 195.323,134.495 208.323,134.829 221.5,134.5C 221.5,138.167 221.5,141.833 221.5,145.5C 204.167,145.5 186.833,145.5 169.5,145.5C 167.887,145.056 166.72,144.056 166,142.5C 165.5,126.17 165.333,109.837 165.5,93.5C 163.901,93.2322 162.568,93.5655 161.5,94.5C 161.5,106.5 161.5,118.5 161.5,130.5C 156.167,130.5 150.833,130.5 145.5,130.5C 145.5,113.833 145.5,97.1667 145.5,80.5C 150.833,80.5 156.167,80.5 161.5,80.5C 161.281,81.675 161.614,82.675 162.5,83.5C 167.416,80.5841 172.749,79.7508 178.5,81C 179.333,81.8333 180.167,82.6667 181,83.5C 181.168,100.338 181.668,117.005 182.5,133.5 Z"/></g>
<g><path style="opacity:1" fill="#fafafa" d="M 210.5,80.5 C 210.833,80.5 211.167,80.5 211.5,80.5C 211.5,84.8333 211.5,89.1667 211.5,93.5C 214.833,93.5 218.167,93.5 221.5,93.5C 221.833,93.5 222.167,93.5 222.5,93.5C 222.5,94.1667 222.5,94.8333 222.5,95.5C 222.5,100.5 222.5,105.5 222.5,110.5C 222.5,111.167 222.5,111.833 222.5,112.5C 218.059,117.358 217.393,122.691 220.5,128.5C 220.5,129.167 220.5,129.833 220.5,130.5C 210.161,130.666 199.828,130.5 189.5,130C 187.667,129.5 186.5,128.333 186,126.5C 185.333,118.5 185.333,110.5 186,102.5C 186.833,101.667 187.667,100.833 188.5,100C 194.491,99.5005 200.491,99.3338 206.5,99.5C 206.5,97.1667 206.5,94.8333 206.5,92.5C 204.901,92.2322 203.568,92.5655 202.5,93.5C 197.468,95.3699 192.135,96.0366 186.5,95.5C 186.5,91.8333 186.5,88.1667 186.5,84.5C 187.29,83.2058 188.29,82.0391 189.5,81C 196.492,80.5004 203.492,80.3337 210.5,80.5 Z"/></g>
<g><path style="opacity:1" fill="#100d0d" d="M 315.5,86.5 C 315.918,85.7784 316.584,85.2784 317.5,85C 308.167,84.3333 298.833,84.3333 289.5,85C 291.584,85.6972 293.251,86.8639 294.5,88.5C 291.692,87.0712 288.692,86.4045 285.5,86.5C 285.5,85.1667 285.5,83.8333 285.5,82.5C 297.5,82.5 309.5,82.5 321.5,82.5C 320.969,85.7794 318.969,87.1128 315.5,86.5 Z"/></g>
<g><path style="opacity:1" fill="#141313" d="M 266.5,86.5 C 266.918,85.7784 267.584,85.2784 268.5,85C 264.848,84.5014 261.182,84.3347 257.5,84.5C 246.162,84.3335 234.828,84.5001 223.5,85C 224.056,85.3826 224.389,85.8826 224.5,86.5C 222.5,86.5 220.5,86.5 218.5,86.5C 218.5,85.1667 218.5,83.8333 218.5,82.5C 236.5,82.5 254.5,82.5 272.5,82.5C 272.5,83.8333 272.5,85.1667 272.5,86.5C 270.5,86.5 268.5,86.5 266.5,86.5 Z"/></g>
<g><path style="opacity:1" fill="#a4642b" d="M 257.5,84.5 C 256.791,85.404 255.791,85.7373 254.5,85.5C 246.653,85.618 238.987,85.618 231.5,85.5C 229.265,85.2053 227.265,85.5386 225.5,86.5C 225.167,86.5 224.833,86.5 224.5,86.5C 224.389,85.8826 224.056,85.3826 223.5,85C 234.828,84.5001 246.162,84.3335 257.5,84.5 Z"/></g>
<g><path style="opacity:1" fill="#fad865" d="M 225.5,86.5 C 227.265,85.5386 229.265,85.2053 231.5,85.5C 230.5,86.1667 229.5,86.8333 228.5,87.5C 227.391,87.4431 226.391,87.1098 225.5,86.5 Z"/></g>
<g><path style="opacity:1" fill="#171413" d="M 224.5,86.5 C 224.833,86.5 225.167,86.5 225.5,86.5C 226.391,87.1098 227.391,87.4431 228.5,87.5C 231.833,90.1667 234.833,93.1667 237.5,96.5C 238.242,98.4258 239.242,100.259 240.5,102C 243.22,102.045 245.886,101.545 248.5,100.5C 250.717,99.6314 253.05,99.298 255.5,99.5C 254.5,100.167 253.5,100.833 252.5,101.5C 247.089,102.519 241.756,103.853 236.5,105.5C 236.611,104.883 236.944,104.383 237.5,104C 234.427,97.1128 230.094,91.2795 224.5,86.5 Z"/></g>
<g><path style="opacity:1" fill="#db2800" d="M 315.5,86.5 C 310.535,88.1314 307.202,91.4647 305.5,96.5C 303.75,97.6594 302.75,99.326 302.5,101.5C 301.85,101.804 301.183,102.137 300.5,102.5C 299.676,99.2152 299.176,95.8818 299,92.5C 298.252,90.249 296.752,88.9156 294.5,88.5C 293.251,86.8639 291.584,85.6972 289.5,85C 298.833,84.3333 308.167,84.3333 317.5,85C 316.584,85.2784 315.918,85.7784 315.5,86.5 Z"/></g>
<g><path style="opacity:1" fill="#f68125" d="M 231.5,85.5 C 238.987,85.618 246.653,85.618 254.5,85.5C 252.856,86.3164 251.69,87.6498 251,89.5C 249.887,87.6707 248.387,86.8374 246.5,87C 246.833,87.3333 247.167,87.6667 247.5,88C 246.5,89 245.5,90 244.5,91C 246.878,91.9745 246.544,92.6411 243.5,93C 244.167,93.3333 244.833,93.6667 245.5,94C 243.536,94.624 241.869,94.124 240.5,92.5C 239.707,93.3554 240.04,94.1887 241.5,95C 238.833,95.6667 238.833,96.3333 241.5,97C 240.072,97.5791 238.738,97.4124 237.5,96.5C 234.833,93.1667 231.833,90.1667 228.5,87.5C 229.5,86.8333 230.5,86.1667 231.5,85.5 Z"/></g>
<g><path style="opacity:1" fill="#ee5e13" d="M 257.5,84.5 C 261.182,84.3347 264.848,84.5014 268.5,85C 267.584,85.2784 266.918,85.7784 266.5,86.5C 266.167,86.5 265.833,86.5 265.5,86.5C 263.712,85.3775 261.712,85.2109 259.5,86C 256.655,89.8746 254.322,94.0413 252.5,98.5C 251.306,96.7728 251.306,94.9395 252.5,93C 251.149,91.1859 250.149,91.5192 249.5,94C 248.5,94.3333 247.5,94.6667 246.5,95C 248.044,95.2896 249.377,95.9563 250.5,97C 249.177,97.8159 248.511,98.9826 248.5,100.5C 245.886,101.545 243.22,102.045 240.5,102C 239.242,100.259 238.242,98.4258 237.5,96.5C 238.738,97.4124 240.072,97.5791 241.5,97C 238.833,96.3333 238.833,95.6667 241.5,95C 240.04,94.1887 239.707,93.3554 240.5,92.5C 241.869,94.124 243.536,94.624 245.5,94C 244.833,93.6667 244.167,93.3333 243.5,93C 246.544,92.6411 246.878,91.9745 244.5,91C 245.5,90 246.5,89 247.5,88C 247.167,87.6667 246.833,87.3333 246.5,87C 248.387,86.8374 249.887,87.6707 251,89.5C 251.69,87.6498 252.856,86.3164 254.5,85.5C 255.791,85.7373 256.791,85.404 257.5,84.5 Z"/></g>
<g><path style="opacity:1" fill="#201c1d" d="M 315.5,86.5 C 311.833,89.5 308.5,92.8333 305.5,96.5C 307.202,91.4647 310.535,88.1314 315.5,86.5 Z"/></g>
<g><path style="opacity:1" fill="#1d0b09" d="M 265.5,86.5 C 265.833,86.5 266.167,86.5 266.5,86.5C 264.115,88.6024 262.782,91.2691 262.5,94.5C 262.11,96.9818 263.11,98.3152 265.5,98.5C 265.5,98.8333 265.5,99.1667 265.5,99.5C 262.167,99.5 258.833,99.5 255.5,99.5C 257.265,98.5386 259.265,98.2053 261.5,98.5C 261.336,95.8127 261.503,93.146 262,90.5C 262.66,88.6763 263.827,87.343 265.5,86.5 Z"/></g>
<g><path style="opacity:1" fill="#ee400a" d="M 265.5,86.5 C 263.827,87.343 262.66,88.6763 262,90.5C 261.503,93.146 261.336,95.8127 261.5,98.5C 259.265,98.2053 257.265,98.5386 255.5,99.5C 253.05,99.298 250.717,99.6314 248.5,100.5C 248.511,98.9826 249.177,97.8159 250.5,97C 249.377,95.9563 248.044,95.2896 246.5,95C 247.5,94.6667 248.5,94.3333 249.5,94C 250.149,91.5192 251.149,91.1859 252.5,93C 251.306,94.9395 251.306,96.7728 252.5,98.5C 254.322,94.0413 256.655,89.8746 259.5,86C 261.712,85.2109 263.712,85.3775 265.5,86.5 Z"/></g>
<g><path style="opacity:1" fill="#a1a1a1" d="M 186.5,84.5 C 186.5,88.1667 186.5,91.8333 186.5,95.5C 192.135,96.0366 197.468,95.3699 202.5,93.5C 202.5,94.5 202.5,95.5 202.5,96.5C 196.833,96.5 191.167,96.5 185.5,96.5C 185.183,92.2984 185.517,88.2984 186.5,84.5 Z"/></g>
<g><path style="opacity:1" fill="#151515" d="M 42.5,77.5 C 54.1667,76.1667 65.8333,76.1667 77.5,77.5C 78.1499,77.8039 78.8165,78.1373 79.5,78.5C 80.354,77.4783 81.354,76.6449 82.5,76C 89.1667,75.3333 95.8333,75.3333 102.5,76C 103.756,76.4169 104.423,77.2502 104.5,78.5C 107.146,79.1644 109.979,79.4978 113,79.5C 116.252,79.4809 119.085,78.8142 121.5,77.5C 135.451,76.5346 149.451,76.2013 163.5,76.5C 169.338,76.2903 175.338,76.6236 181.5,77.5C 182.167,77.5 182.5,77.8333 182.5,78.5C 184.128,79.8528 185.462,79.5195 186.5,77.5C 194.466,76.6351 202.466,76.3018 210.5,76.5C 210.5,77.8333 210.5,79.1667 210.5,80.5C 203.492,80.3337 196.492,80.5004 189.5,81C 188.29,82.0391 187.29,83.2058 186.5,84.5C 185.517,88.2984 185.183,92.2984 185.5,96.5C 191.167,96.5 196.833,96.5 202.5,96.5C 202.5,95.5 202.5,94.5 202.5,93.5C 203.568,92.5655 204.901,92.2322 206.5,92.5C 206.5,94.8333 206.5,97.1667 206.5,99.5C 200.491,99.3338 194.491,99.5005 188.5,100C 187.667,100.833 186.833,101.667 186,102.5C 185.333,110.5 185.333,118.5 186,126.5C 186.5,128.333 187.667,129.5 189.5,130C 199.828,130.5 210.161,130.666 220.5,130.5C 220.5,131.5 220.5,132.5 220.5,133.5C 207.833,133.5 195.167,133.5 182.5,133.5C 181.668,117.005 181.168,100.338 181,83.5C 180.167,82.6667 179.333,81.8333 178.5,81C 172.749,79.7508 167.416,80.5841 162.5,83.5C 161.614,82.675 161.281,81.675 161.5,80.5C 156.167,80.5 150.833,80.5 145.5,80.5C 145.5,97.1667 145.5,113.833 145.5,130.5C 145.196,131.15 144.863,131.817 144.5,132.5C 150.319,133.167 155.986,133.833 161.5,134.5C 148.829,134.667 136.162,134.5 123.5,134C 122.497,132.454 121.497,132.287 120.5,133.5C 109.531,134.407 98.5313,134.74 87.5,134.5C 86.1667,134.167 84.8333,133.833 83.5,133.5C 83.5,133.167 83.5,132.833 83.5,132.5C 83.44,131.957 83.1067,131.624 82.5,131.5C 81.5046,137.128 81.1712,142.794 81.5,148.5C 60.5755,149.488 39.5755,149.821 18.5,149.5C 17.8333,149.5 17.5,149.167 17.5,148.5C 17.3334,125.164 17.5,101.831 18,78.5C 18.7172,77.9558 19.2172,77.2891 19.5,76.5C 25.987,75.346 32.6536,75.1794 39.5,76C 40.2438,77.0386 41.2438,77.5386 42.5,77.5 Z"/></g>
<g><path style="opacity:1" fill="#a1a1a1" d="M 100.5,83.5 C 107.5,83.5 114.5,83.5 121.5,83.5C 121.5,87.8333 121.5,92.1667 121.5,96.5C 114.833,96.5 108.167,96.5 101.5,96.5C 101.167,96.5 100.833,96.5 100.5,96.5C 106.979,95.5093 113.646,95.176 120.5,95.5C 120.5,91.8333 120.5,88.1667 120.5,84.5C 113.646,84.824 106.979,84.4907 100.5,83.5 Z"/></g>
<g><path style="opacity:1" fill="#979797" d="M 61.5,93.5 C 60.5,93.5 59.5,93.5 58.5,93.5C 58.5,94.5 58.5,95.5 58.5,96.5C 52.642,96.8222 46.9753,96.4889 41.5,95.5C 46.8333,95.5 52.1667,95.5 57.5,95.5C 57.5,94.5 57.5,93.5 57.5,92.5C 59.099,92.2322 60.4324,92.5655 61.5,93.5 Z"/></g>
<g><path style="opacity:1" fill="#c8c8c8" d="M 126.5,80.5 C 131.5,80.5 136.5,80.5 141.5,80.5C 141.83,97.3417 141.497,114.008 140.5,130.5C 140.5,114.167 140.5,97.8333 140.5,81.5C 135.637,81.8195 130.97,81.4861 126.5,80.5 Z"/></g>
<g><path style="opacity:1" fill="#f6f6f6" d="M 126.5,80.5 C 130.97,81.4861 135.637,81.8195 140.5,81.5C 140.5,97.8333 140.5,114.167 140.5,130.5C 135.167,130.5 129.833,130.5 124.5,130.5C 123.848,113.466 124.515,96.7998 126.5,80.5 Z"/></g>
<g><path style="opacity:1" fill="#fafafa" d="M 100.5,83.5 C 106.979,84.4907 113.646,84.824 120.5,84.5C 120.5,88.1667 120.5,91.8333 120.5,95.5C 113.646,95.176 106.979,95.5093 100.5,96.5C 100.5,103.833 100.5,111.167 100.5,118.5C 102.099,118.768 103.432,118.434 104.5,117.5C 104.5,111.5 104.5,105.5 104.5,99.5C 110.167,99.5 115.833,99.5 121.5,99.5C 121.666,108.506 121.5,117.506 121,126.5C 120.626,127.416 120.126,128.25 119.5,129C 108.932,130.619 98.2653,130.952 87.5,130C 86.6667,129.167 85.8333,128.333 85,127.5C 84.5002,117.172 84.3335,106.839 84.5,96.5C 83.1667,96.5 81.8333,96.5 80.5,96.5C 80.5,92.1667 80.5,87.8333 80.5,83.5C 81.8333,83.5 83.1667,83.5 84.5,83.5C 84.5,82.5 84.5,81.5 84.5,80.5C 89.8333,80.5 95.1667,80.5 100.5,80.5C 100.5,81.5 100.5,82.5 100.5,83.5 Z"/></g>
<g><path style="opacity:1" fill="#f9f9f9" d="M 61.5,93.5 C 60.4324,92.5655 59.099,92.2322 57.5,92.5C 57.5,93.5 57.5,94.5 57.5,95.5C 52.1667,95.5 46.8333,95.5 41.5,95.5C 41.3345,91.4862 41.5012,87.4862 42,83.5C 42.8333,82.6667 43.6667,81.8333 44.5,81C 54.5,80.3333 64.5,80.3333 74.5,81C 75.6667,82.1667 76.8333,83.3333 78,84.5C 78.4999,99.8297 78.6666,115.163 78.5,130.5C 67.1618,130.667 55.8284,130.5 44.5,130C 43.6667,129.167 42.8333,128.333 42,127.5C 41.3333,119.167 41.3333,110.833 42,102.5C 42.8333,101.667 43.6667,100.833 44.5,100C 50.1569,99.5006 55.8236,99.3339 61.5,99.5C 61.5,97.5 61.5,95.5 61.5,93.5 Z"/></g>
<g><path style="opacity:1" fill="#fefefe" d="M 37.5,133.5 C 50.6562,134.496 63.9895,134.829 77.5,134.5C 77.5,138.167 77.5,141.833 77.5,145.5C 58.8333,145.5 40.1667,145.5 21.5,145.5C 21.5,123.833 21.5,102.167 21.5,80.5C 26.8333,80.5 32.1667,80.5 37.5,80.5C 37.5,98.1667 37.5,115.833 37.5,133.5 Z"/></g>
<g><path style="opacity:0.125" fill="#e2e2e2" d="M 186.5,77.5 C 185.462,79.5195 184.128,79.8528 182.5,78.5C 183.833,78.1667 185.167,77.8333 186.5,77.5 Z"/></g>
<g><path style="opacity:0.271" fill="#f9f9f9" d="M 121.5,77.5 C 119.085,78.8142 116.252,79.4809 113,79.5C 109.979,79.4978 107.146,79.1644 104.5,78.5C 110.259,78.7857 115.925,78.4524 121.5,77.5 Z"/></g>
<g><path style="opacity:0.546" fill="#d7d7d7" d="M 77.5,77.5 C 65.8333,76.1667 54.1667,76.1667 42.5,77.5C 43.2625,76.7321 44.2625,76.2321 45.5,76C 55.1667,75.3333 64.8333,75.3333 74.5,76C 75.7375,76.2321 76.7375,76.7321 77.5,77.5 Z"/></g>
<g><path style="opacity:1" fill="#090909" d="M 222.5,95.5 C 225.748,96.9287 227.081,99.4287 226.5,103C 227.081,106.571 225.748,109.071 222.5,110.5C 222.5,105.5 222.5,100.5 222.5,95.5 Z"/></g>
<g><path style="opacity:0.6" fill="#b1b3b2" d="M 194.5,73.5 C 204.5,73.5 214.5,73.5 224.5,73.5C 228.167,74.8333 231.833,74.8333 235.5,73.5C 245.5,73.5 255.5,73.5 265.5,73.5C 286.66,74.4973 307.993,74.8306 329.5,74.5C 329.5,81.1667 329.5,87.8333 329.5,94.5C 320.715,92.2253 314.715,95.2253 311.5,103.5C 317.58,107.08 322.08,112.08 325,118.5C 323.314,127.984 321.981,137.651 321,147.5C 315.573,151.45 310.239,151.117 305,146.5C 303.561,144.725 302.561,142.725 302,140.5C 299.306,142.681 296.306,144.348 293,145.5C 288.13,154.072 283.63,162.905 279.5,172C 274.136,172.829 268.802,172.663 263.5,171.5C 258.927,163.355 254.593,155.022 250.5,146.5C 246.939,145.102 243.772,143.102 241,140.5C 237.641,148.098 231.807,151.431 223.5,150.5C 223.489,148.983 222.823,147.816 221.5,147C 203.995,146.832 186.662,146.332 169.5,145.5C 186.833,145.5 204.167,145.5 221.5,145.5C 223.01,146.836 224.677,148.003 226.5,149C 233.472,148.756 237.972,145.256 240,138.5C 243.46,140.979 247.127,142.979 251,144.5C 255.755,153.01 260.255,161.676 264.5,170.5C 269.385,171.802 274.218,171.802 279,170.5C 282.94,161.505 286.773,152.505 290.5,143.5C 292.199,143.66 293.866,143.494 295.5,143C 297.699,141.303 300.032,139.803 302.5,138.5C 303.498,140.49 304.498,142.49 305.5,144.5C 309.371,149.196 313.871,150.196 319,147.5C 320.245,141.61 320.912,135.61 321,129.5C 323.298,125.782 323.965,121.782 323,117.5C 319.663,111.664 315.163,106.997 309.5,103.5C 311.223,99.8887 313.556,96.722 316.5,94C 320.363,92.6463 324.363,92.1463 328.5,92.5C 328.5,87.1667 328.5,81.8333 328.5,76.5C 289.67,75.5015 250.67,75.1681 211.5,75.5C 211.5,77.1667 211.5,78.8333 211.5,80.5C 211.167,80.5 210.833,80.5 210.5,80.5C 210.5,79.1667 210.5,77.8333 210.5,76.5C 202.466,76.3018 194.466,76.6351 186.5,77.5C 187.263,76.7321 188.263,76.2321 189.5,76C 196.5,75.6667 203.5,75.3333 210.5,75C 204.984,74.8267 199.651,74.3267 194.5,73.5 Z"/></g>
<g><path style="opacity:1" fill="#404040" d="M 100.5,96.5 C 100.833,96.5 101.167,96.5 101.5,96.5C 101.5,103.5 101.5,110.5 101.5,117.5C 102.5,117.5 103.5,117.5 104.5,117.5C 103.432,118.434 102.099,118.768 100.5,118.5C 100.5,111.167 100.5,103.833 100.5,96.5 Z"/></g>
<g><path style="opacity:1" fill="#1a1211" d="M 305.5,96.5 C 305.25,98.674 304.25,100.341 302.5,101.5C 302.75,99.326 303.75,97.6594 305.5,96.5 Z"/></g>
<g><path style="opacity:1" fill="#aeb2b0" d="M 255.5,99.5 C 258.833,99.5 262.167,99.5 265.5,99.5C 272.841,99.3337 280.174,99.5003 287.5,100C 289.611,100.845 291.611,101.678 293.5,102.5C 291.265,102.205 289.265,102.539 287.5,103.5C 286.209,103.737 285.209,103.404 284.5,102.5C 285.239,102.631 285.906,102.464 286.5,102C 275.203,100.297 263.87,100.131 252.5,101.5C 253.5,100.833 254.5,100.167 255.5,99.5 Z"/></g>
<g><path style="opacity:0.89" fill="#a2a4a3" d="M 222.5,93.5 C 226.749,96.2612 229.749,100.095 231.5,105C 228.335,107.335 225.335,109.835 222.5,112.5C 222.5,111.833 222.5,111.167 222.5,110.5C 225.748,109.071 227.081,106.571 226.5,103C 227.081,99.4287 225.748,96.9287 222.5,95.5C 222.5,94.8333 222.5,94.1667 222.5,93.5 Z M 227.5,101.5 C 229.088,102.635 229.421,103.969 228.5,105.5C 227.571,104.311 227.238,102.978 227.5,101.5 Z"/></g>
<g><path style="opacity:1" fill="#eff0f0" d="M 284.5,102.5 C 282.833,102.5 281.167,102.5 279.5,102.5C 275.167,101.167 270.833,101.167 266.5,102.5C 260.714,102.312 255.047,102.978 249.5,104.5C 248.209,104.263 247.209,104.596 246.5,105.5C 243.279,106.111 240.279,107.278 237.5,109C 238.094,109.464 238.761,109.631 239.5,109.5C 240.414,112.728 240.747,116.061 240.5,119.5C 239.71,120.794 238.71,121.961 237.5,123C 238.577,123.47 239.577,123.303 240.5,122.5C 244.775,121.681 248.775,120.347 252.5,118.5C 252.246,117.668 251.246,117.001 249.5,116.5C 249.389,114.352 250.056,114.019 251.5,115.5C 251.964,113.025 252.964,111.025 254.5,109.5C 255.518,108.708 255.851,107.041 255.5,104.5C 256.833,104.5 258.167,104.5 259.5,104.5C 259.763,108.6 259.43,112.6 258.5,116.5C 256.972,116.517 256.472,117.184 257,118.5C 261.452,117.859 265.952,117.192 270.5,116.5C 269.675,115.614 268.675,115.281 267.5,115.5C 266.411,111.922 266.245,108.255 267,104.5C 267.671,103.748 268.504,103.414 269.5,103.5C 271.638,107.776 273.804,112.109 276,116.5C 277.356,117.38 278.856,117.714 280.5,117.5C 282.814,114.205 284.648,110.538 286,106.5C 287.356,105.62 288.856,105.286 290.5,105.5C 290.815,109.371 290.482,113.038 289.5,116.5C 286.282,116.651 285.949,117.484 288.5,119C 293.186,120.171 297.852,121.338 302.5,122.5C 304.344,120.721 305.01,118.388 304.5,115.5C 303.041,115.433 301.708,115.766 300.5,116.5C 300.5,115.833 300.5,115.167 300.5,114.5C 300.5,113.833 300.5,113.167 300.5,112.5C 301.482,113.141 302.482,113.807 303.5,114.5C 304.641,112.579 304.808,110.579 304,108.5C 301.55,107.358 299.05,106.358 296.5,105.5C 293.5,104.833 290.5,104.167 287.5,103.5C 289.265,102.539 291.265,102.205 293.5,102.5C 302.704,103.602 310.371,107.602 316.5,114.5C 316.041,117.49 315.041,120.323 313.5,123C 314.895,125.075 314.562,126.908 312.5,128.5C 313.246,129.736 313.579,131.07 313.5,132.5C 310.953,131.066 308.619,129.4 306.5,127.5C 302.162,124.099 297.162,121.932 291.5,121C 285.548,119.67 279.548,119.337 273.5,120C 277.346,119.99 279.679,120.49 280.5,121.5C 273.833,121.5 267.167,121.5 260.5,121.5C 263.305,120.681 266.305,120.181 269.5,120C 260.385,118.956 251.551,120.122 243,123.5C 241.97,123.836 241.47,124.503 241.5,125.5C 235.702,127.57 230.702,130.904 226.5,135.5C 227.588,133.417 228.588,131.251 229.5,129C 228.692,128.692 228.025,128.192 227.5,127.5C 228.167,125.833 228.833,124.167 229.5,122.5C 227.764,119.766 226.764,116.766 226.5,113.5C 229.545,110.453 232.878,107.787 236.5,105.5C 241.756,103.853 247.089,102.519 252.5,101.5C 263.87,100.131 275.203,100.297 286.5,102C 285.906,102.464 285.239,102.631 284.5,102.5 Z"/></g>
<g><path style="opacity:1" fill="#0f0f0f" d="M 246.5,105.5 C 248.117,106.589 248.95,108.256 249,110.5C 250.368,108.185 251.201,108.185 251.5,110.5C 250.477,112.003 249.477,113.503 248.5,115C 248.57,115.765 248.903,116.265 249.5,116.5C 251.246,117.001 252.246,117.668 252.5,118.5C 247.676,117.741 243.676,119.075 240.5,122.5C 239.577,123.303 238.577,123.47 237.5,123C 238.71,121.961 239.71,120.794 240.5,119.5C 241.808,115.981 241.808,112.315 240.5,108.5C 239.893,108.624 239.56,108.957 239.5,109.5C 238.761,109.631 238.094,109.464 237.5,109C 240.279,107.278 243.279,106.111 246.5,105.5 Z"/></g>
<g><path style="opacity:1" fill="#121312" d="M 266.5,102.5 C 270.971,101.911 274.971,102.577 278.5,104.5C 278.643,107.097 279.477,109.431 281,111.5C 282.115,110 282.948,108.333 283.5,106.5C 283.145,105.478 282.478,104.811 281.5,104.5C 280.833,103.833 280.167,103.167 279.5,102.5C 281.167,102.5 282.833,102.5 284.5,102.5C 285.209,103.404 286.209,103.737 287.5,103.5C 290.5,104.167 293.5,104.833 296.5,105.5C 296.201,107.604 296.534,109.604 297.5,111.5C 299.738,108.567 300.738,108.901 300.5,112.5C 300.5,113.167 300.5,113.833 300.5,114.5C 299.542,114.047 298.708,113.381 298,112.5C 296.872,114.345 296.372,116.345 296.5,118.5C 293.933,118.279 291.599,117.612 289.5,116.5C 290.482,113.038 290.815,109.371 290.5,105.5C 288.856,105.286 287.356,105.62 286,106.5C 284.648,110.538 282.814,114.205 280.5,117.5C 279.895,115.974 278.729,114.974 277,114.5C 275.774,111.048 274.274,107.715 272.5,104.5C 271.675,103.614 270.675,103.281 269.5,103.5C 268.504,103.414 267.671,103.748 267,104.5C 266.245,108.255 266.411,111.922 267.5,115.5C 264.43,115.368 261.43,115.701 258.5,116.5C 259.43,112.6 259.763,108.6 259.5,104.5C 258.167,104.5 256.833,104.5 255.5,104.5C 255.851,107.041 255.518,108.708 254.5,109.5C 254.631,108.761 254.464,108.094 254,107.5C 252.348,106.601 250.848,105.601 249.5,104.5C 255.047,102.978 260.714,102.312 266.5,102.5 Z"/></g>
<g><path style="opacity:1" fill="#f0f0f0" d="M 278.5,104.5 C 279.5,104.5 280.5,104.5 281.5,104.5C 282.478,104.811 283.145,105.478 283.5,106.5C 282.948,108.333 282.115,110 281,111.5C 279.477,109.431 278.643,107.097 278.5,104.5 Z"/></g>
<g><path style="opacity:1" fill="#9a9b9a" d="M 266.5,102.5 C 270.833,101.167 275.167,101.167 279.5,102.5C 280.167,103.167 280.833,103.833 281.5,104.5C 280.5,104.5 279.5,104.5 278.5,104.5C 274.971,102.577 270.971,101.911 266.5,102.5 Z"/></g>
<g><path style="opacity:1" fill="#777877" d="M 246.5,105.5 C 247.209,104.596 248.209,104.263 249.5,104.5C 250.848,105.601 252.348,106.601 254,107.5C 254.464,108.094 254.631,108.761 254.5,109.5C 252.964,111.025 251.964,113.025 251.5,115.5C 250.056,114.019 249.389,114.352 249.5,116.5C 248.903,116.265 248.57,115.765 248.5,115C 249.477,113.503 250.477,112.003 251.5,110.5C 251.201,108.185 250.368,108.185 249,110.5C 248.95,108.256 248.117,106.589 246.5,105.5 Z"/></g>
<g><path style="opacity:1" fill="#505150" d="M 296.5,105.5 C 299.05,106.358 301.55,107.358 304,108.5C 304.808,110.579 304.641,112.579 303.5,114.5C 302.482,113.807 301.482,113.141 300.5,112.5C 300.738,108.901 299.738,108.567 297.5,111.5C 296.534,109.604 296.201,107.604 296.5,105.5 Z"/></g>
<g><path style="opacity:1" fill="#909090" d="M 58.5,110.5 C 58.5,112.833 58.5,115.167 58.5,117.5C 59.5,117.5 60.5,117.5 61.5,117.5C 61.5,115.167 61.5,112.833 61.5,110.5C 62.4731,112.948 62.8064,115.615 62.5,118.5C 60.8333,118.5 59.1667,118.5 57.5,118.5C 57.1936,115.615 57.5269,112.948 58.5,110.5 Z"/></g>
<g><path style="opacity:1" fill="#010101" d="M 58.5,110.5 C 59.5,110.5 60.5,110.5 61.5,110.5C 61.5,112.833 61.5,115.167 61.5,117.5C 60.5,117.5 59.5,117.5 58.5,117.5C 58.5,115.167 58.5,112.833 58.5,110.5 Z"/></g>
<g><path style="opacity:1" fill="#6c6c6c" d="M 202.5,110.5 C 202.5,112.833 202.5,115.167 202.5,117.5C 203.5,117.5 204.5,117.5 205.5,117.5C 205.5,115.167 205.5,112.833 205.5,110.5C 206.473,112.948 206.806,115.615 206.5,118.5C 204.833,118.5 203.167,118.5 201.5,118.5C 201.194,115.615 201.527,112.948 202.5,110.5 Z"/></g>
<g><path style="opacity:1" fill="#020202" d="M 202.5,110.5 C 203.5,110.5 204.5,110.5 205.5,110.5C 205.5,112.833 205.5,115.167 205.5,117.5C 204.5,117.5 203.5,117.5 202.5,117.5C 202.5,115.167 202.5,112.833 202.5,110.5 Z"/></g>
<g><path style="opacity:1" fill="#646564" d="M 269.5,103.5 C 270.675,103.281 271.675,103.614 272.5,104.5C 274.274,107.715 275.774,111.048 277,114.5C 278.729,114.974 279.895,115.974 280.5,117.5C 278.856,117.714 277.356,117.38 276,116.5C 273.804,112.109 271.638,107.776 269.5,103.5 Z"/></g>
<g><path style="opacity:1" fill="#797b79" d="M 240.5,119.5 C 240.747,116.061 240.414,112.728 239.5,109.5C 239.56,108.957 239.893,108.624 240.5,108.5C 241.808,112.315 241.808,115.981 240.5,119.5 Z"/></g>
<g><path style="opacity:1" fill="#494a49" d="M 267.5,115.5 C 268.675,115.281 269.675,115.614 270.5,116.5C 265.952,117.192 261.452,117.859 257,118.5C 256.472,117.184 256.972,116.517 258.5,116.5C 261.43,115.701 264.43,115.368 267.5,115.5 Z"/></g>
<g><path style="opacity:1" fill="#1e1e1e" d="M 302.5,122.5 C 301.426,120.716 299.76,119.549 297.5,119C 298.373,117.955 299.373,117.122 300.5,116.5C 301.708,115.766 303.041,115.433 304.5,115.5C 305.01,118.388 304.344,120.721 302.5,122.5 Z"/></g>
<g><path style="opacity:1" fill="#737473" d="M 300.5,114.5 C 300.5,115.167 300.5,115.833 300.5,116.5C 299.373,117.122 298.373,117.955 297.5,119C 299.76,119.549 301.426,120.716 302.5,122.5C 297.852,121.338 293.186,120.171 288.5,119C 285.949,117.484 286.282,116.651 289.5,116.5C 291.599,117.612 293.933,118.279 296.5,118.5C 296.372,116.345 296.872,114.345 298,112.5C 298.708,113.381 299.542,114.047 300.5,114.5 Z"/></g>
<g><path style="opacity:1" fill="#7c7d7b" d="M 252.5,118.5 C 248.775,120.347 244.775,121.681 240.5,122.5C 243.676,119.075 247.676,117.741 252.5,118.5 Z"/></g>
<g><path style="opacity:1" fill="#acadac" d="M 260.5,121.5 C 254.092,122.581 247.759,123.915 241.5,125.5C 241.47,124.503 241.97,123.836 243,123.5C 251.551,120.122 260.385,118.956 269.5,120C 266.305,120.181 263.305,120.681 260.5,121.5 Z"/></g>
<g><path style="opacity:1" fill="#d8dbdb" d="M 279.5,132.5 C 279.771,130.62 279.104,129.287 277.5,128.5C 276.662,128.158 276.328,127.492 276.5,126.5C 277.247,122.807 278.58,122.807 280.5,126.5C 281.281,125.263 282.281,124.263 283.5,123.5C 284.137,126.307 283.471,128.973 281.5,131.5C 281.043,132.298 280.376,132.631 279.5,132.5 Z"/></g>
<g><path style="opacity:1" fill="#a8aaa8" d="M 306.5,127.5 C 304.883,126.962 303.216,126.629 301.5,126.5C 301.389,125.883 301.056,125.383 300.5,125C 293.675,123.919 287.008,122.753 280.5,121.5C 279.679,120.49 277.346,119.99 273.5,120C 279.548,119.337 285.548,119.67 291.5,121C 297.162,121.932 302.162,124.099 306.5,127.5 Z"/></g>
<g><path style="opacity:1" fill="#dfe1e1" d="M 275.5,160.5 C 277.957,157.249 279.624,153.582 280.5,149.5C 280.328,148.508 280.662,147.842 281.5,147.5C 283.957,144.249 285.624,140.582 286.5,136.5C 288.559,133.389 290.392,130.056 292,126.5C 292.893,125.289 293.726,125.289 294.5,126.5C 288.207,140.082 282.207,153.748 276.5,167.5C 273.223,167.784 270.057,167.451 267,166.5C 260.032,153.396 253.198,140.23 246.5,127C 247.01,125.174 247.844,125.007 249,126.5C 255.5,138.833 262,151.167 268.5,163.5C 270.421,164.641 272.421,164.808 274.5,164C 275.337,162.989 275.67,161.822 275.5,160.5 Z"/></g>
<g><path style="opacity:1" fill="#757674" d="M 316.5,114.5 C 318.113,116.428 319.113,118.762 319.5,121.5C 319.099,123.434 318.099,124.934 316.5,126C 315.97,131.052 316.637,136.052 318.5,141C 318.486,142.385 318.152,143.551 317.5,144.5C 316.709,141.885 316.043,139.218 315.5,136.5C 315.267,134.938 314.6,133.605 313.5,132.5C 313.579,131.07 313.246,129.736 312.5,128.5C 314.562,126.908 314.895,125.075 313.5,123C 315.041,120.323 316.041,117.49 316.5,114.5 Z"/></g>
<g><path style="opacity:1" fill="#ebebea" d="M 302.5,130.5 C 301.167,131.833 301.167,133.167 302.5,134.5C 302.5,134.833 302.5,135.167 302.5,135.5C 301.833,135.5 301.167,135.5 300.5,135.5C 299.094,135.027 298.427,134.027 298.5,132.5C 299.287,130.896 300.62,130.229 302.5,130.5 Z"/></g>
<g><path style="opacity:1" fill="#212121" d="M 161.5,94.5 C 162.203,107.019 162.87,119.686 163.5,132.5C 162.625,136.787 162.292,141.121 162.5,145.5C 161.596,144.791 161.263,143.791 161.5,142.5C 161.5,139.833 161.5,137.167 161.5,134.5C 155.986,133.833 150.319,133.167 144.5,132.5C 144.863,131.817 145.196,131.15 145.5,130.5C 150.833,130.5 156.167,130.5 161.5,130.5C 161.5,118.5 161.5,106.5 161.5,94.5 Z"/></g>
<g><path style="opacity:1" fill="#797a79" d="M 226.5,113.5 C 226.764,116.766 227.764,119.766 229.5,122.5C 228.833,124.167 228.167,125.833 227.5,127.5C 228.025,128.192 228.692,128.692 229.5,129C 228.588,131.251 227.588,133.417 226.5,135.5C 226.393,137.379 226.893,137.712 228,136.5C 228.495,138.473 228.662,140.473 228.5,142.5C 230.144,142.286 231.644,142.62 233,143.5C 237.931,138.055 237.431,137.389 231.5,141.5C 229.717,140.652 229.217,139.319 230,137.5C 232.589,130.951 237.422,127.451 244.5,127C 243.167,127.667 241.833,128.333 240.5,129C 241.056,129.383 241.389,129.883 241.5,130.5C 239.075,130.684 239.075,131.351 241.5,132.5C 240.873,133.417 240.539,134.417 240.5,135.5C 237.278,135.108 234.278,135.608 231.5,137C 238.827,136.999 239.494,139.666 233.5,145C 228.477,147.911 225.144,146.744 223.5,141.5C 226.578,134.295 225.912,127.462 221.5,121C 222.299,117.896 223.966,115.396 226.5,113.5 Z"/></g>
<g><path style="opacity:1" fill="#f6f6f6" d="M 241.5,130.5 C 242.833,131.167 243.833,132.167 244.5,133.5C 243.71,134.401 242.71,135.068 241.5,135.5C 241.167,135.5 240.833,135.5 240.5,135.5C 240.539,134.417 240.873,133.417 241.5,132.5C 239.075,131.351 239.075,130.684 241.5,130.5 Z"/></g>
<g><path style="opacity:1" fill="#8e8f8e" d="M 301.5,126.5 C 303.187,128.166 305.187,129.5 307.5,130.5C 308.429,131.689 308.762,133.022 308.5,134.5C 306.5,134.5 304.5,134.5 302.5,134.5C 301.167,133.167 301.167,131.833 302.5,130.5C 301.152,128.52 299.152,127.353 296.5,127C 298.134,126.506 299.801,126.34 301.5,126.5 Z"/></g>
<g><path style="opacity:1" fill="#959595" d="M 220.5,128.5 C 222.461,130.32 222.794,132.32 221.5,134.5C 208.323,134.829 195.323,134.495 182.5,133.5C 195.167,133.5 207.833,133.5 220.5,133.5C 220.5,132.5 220.5,131.5 220.5,130.5C 220.5,129.833 220.5,129.167 220.5,128.5 Z"/></g>
<g><path style="opacity:1" fill="#e13200" d="M 276.5,126.5 C 276.328,127.492 276.662,128.158 277.5,128.5C 277.66,130.153 278.326,131.486 279.5,132.5C 279.738,134.645 280.738,136.312 282.5,137.5C 284.484,133.531 286.484,129.531 288.5,125.5C 289.365,124.417 290.365,124.251 291.5,125C 289.136,128.559 287.469,132.392 286.5,136.5C 284.043,139.751 282.376,143.418 281.5,147.5C 280.662,147.842 280.328,148.508 280.5,149.5C 278.043,152.751 276.376,156.418 275.5,160.5C 274.685,161.429 273.852,162.429 273,163.5C 265.912,150.993 259.079,138.326 252.5,125.5C 253.025,124.808 253.692,124.308 254.5,124C 261.145,122.453 267.811,122.287 274.5,123.5C 274.942,124.739 275.609,125.739 276.5,126.5 Z"/></g>
<g><path style="opacity:1" fill="#0e1010" d="M 277.5,128.5 C 279.104,129.287 279.771,130.62 279.5,132.5C 278.326,131.486 277.66,130.153 277.5,128.5 Z"/></g>
<g><path style="opacity:0.533" fill="#d6d6d6" d="M 120.5,133.5 C 119.737,134.268 118.737,134.768 117.5,135C 107.325,135.825 97.3247,135.658 87.5,134.5C 98.5313,134.74 109.531,134.407 120.5,133.5 Z"/></g>
<g><path style="opacity:0.533" fill="#d3d3d3" d="M 120.5,133.5 C 121.497,132.287 122.497,132.454 123.5,134C 136.162,134.5 148.829,134.667 161.5,134.5C 161.5,137.167 161.5,139.833 161.5,142.5C 160.532,140.393 160.198,138.059 160.5,135.5C 147.829,135.667 135.162,135.5 122.5,135C 121.956,134.283 121.289,133.783 120.5,133.5 Z"/></g>
<g><path style="opacity:0.949" fill="#8d8d8d" d="M 83.5,132.5 C 82.1667,132.833 82.1667,133.167 83.5,133.5C 83.6657,137.846 83.499,142.179 83,146.5C 82.7216,147.416 82.2216,148.082 81.5,148.5C 81.1712,142.794 81.5046,137.128 82.5,131.5C 83.1067,131.624 83.44,131.957 83.5,132.5 Z"/></g>
<g><path style="opacity:1" fill="#3e3f3e" d="M 301.5,126.5 C 303.216,126.629 304.883,126.962 306.5,127.5C 308.619,129.4 310.953,131.066 313.5,132.5C 314.6,133.605 315.267,134.938 315.5,136.5C 314.637,135.537 313.97,135.537 313.5,136.5C 314.81,139.905 314.143,142.905 311.5,145.5C 308.078,144.581 305.745,142.414 304.5,139C 305.066,138.005 305.733,137.172 306.5,136.5C 305.432,135.566 304.099,135.232 302.5,135.5C 302.5,135.167 302.5,134.833 302.5,134.5C 304.5,134.5 306.5,134.5 308.5,134.5C 308.762,133.022 308.429,131.689 307.5,130.5C 305.187,129.5 303.187,128.166 301.5,126.5 Z"/></g>
<g><path style="opacity:1" fill="#8d8e8c" d="M 244.5,133.5 C 252.618,143.285 251.618,143.952 241.5,135.5C 242.71,135.068 243.71,134.401 244.5,133.5 Z"/></g>
<g><path style="opacity:1" fill="#9a9b99" d="M 298.5,132.5 C 298.427,134.027 299.094,135.027 300.5,135.5C 298.906,136.983 297.24,138.483 295.5,140C 294.833,140.667 294.167,140.667 293.5,140C 295.628,137.727 297.295,135.227 298.5,132.5 Z"/></g>
<g><path style="opacity:1" fill="#969896" d="M 306.5,136.5 C 309.24,136.756 311.574,137.756 313.5,139.5C 310.168,140.9 307.835,139.9 306.5,136.5 Z"/></g>
<g><path style="opacity:1" fill="#bebfbd" d="M 315.5,136.5 C 316.043,139.218 316.709,141.885 317.5,144.5C 316.866,145.947 315.699,146.613 314,146.5C 312.93,146.472 312.097,146.139 311.5,145.5C 314.143,142.905 314.81,139.905 313.5,136.5C 313.97,135.537 314.637,135.537 315.5,136.5 Z"/></g>
<g><path style="opacity:1" fill="#181011" d="M 286.5,136.5 C 285.624,140.582 283.957,144.249 281.5,147.5C 282.376,143.418 284.043,139.751 286.5,136.5 Z"/></g>
<g><path style="opacity:1" fill="#a5a5a5" d="M 37.5,133.5 C 51.1667,133.5 64.8333,133.5 78.5,133.5C 78.5,137.833 78.5,142.167 78.5,146.5C 59.326,146.83 40.326,146.497 21.5,145.5C 40.1667,145.5 58.8333,145.5 77.5,145.5C 77.5,141.833 77.5,138.167 77.5,134.5C 63.9895,134.829 50.6562,134.496 37.5,133.5 Z"/></g>
<g><path style="opacity:1" fill="#252525" d="M 161.5,94.5 C 162.568,93.5655 163.901,93.2322 165.5,93.5C 165.333,109.837 165.5,126.17 166,142.5C 166.72,144.056 167.887,145.056 169.5,145.5C 186.662,146.332 203.995,146.832 221.5,147C 222.823,147.816 223.489,148.983 223.5,150.5C 206.005,151.662 188.338,151.829 170.5,151C 168.509,150.626 166.842,149.793 165.5,148.5C 165.167,147.5 164.5,146.833 163.5,146.5C 162.833,146.5 162.5,146.167 162.5,145.5C 162.292,141.121 162.625,136.787 163.5,132.5C 162.87,119.686 162.203,107.019 161.5,94.5 Z"/></g>
<g><path style="opacity:0.016" fill="#dbdbdb" d="M 163.5,146.5 C 164.5,146.833 165.167,147.5 165.5,148.5C 164.167,148.5 163.5,147.833 163.5,146.5 Z"/></g>
<g><path style="opacity:1" fill="#777777" d="M 81.5,148.5 C 81.4226,149.75 80.756,150.583 79.5,151C 59.8333,151.667 40.1667,151.667 20.5,151C 19.5842,150.722 18.9175,150.222 18.5,149.5C 39.5755,149.821 60.5755,149.488 81.5,148.5 Z"/></g>
<g><path style="opacity:1" fill="#181313" d="M 280.5,149.5 C 279.624,153.582 277.957,157.249 275.5,160.5C 276.376,156.418 278.043,152.751 280.5,149.5 Z"/></g>
</svg>
